# xmcd
#
# Track frame offsets:
#	180
#	19749
#	37250
#	48903
#	65198
#	84157
#	99058
#	113663
#	127410
#	140268
#	158077
#	172359
#	180192
#	194469
#	210994
#	222335
#	236157
#	250818
#	266666
#	281851
#
# Disc length: 3981 seconds
#
# Revision: 1
# Processed by: cddbd v1.5.2PL0 Copyright (c) Steve Scherf et al.
# Submitted via: audiograbber 1.83.01
#
DISCID=280f8b14
DTITLE=Glory Train - Gospel Varite March 2000
DYEAR=1900
DGENRE=Country
TTITLE0=Johnny Cash - When He Comes
TTITLE1=Dennis Money - Granma
TTITLE2=Lenaye Pearson - Walked On Sacred Ground
TTITLE3=Robert Shields - Crucified
TTITLE4=Donna Adams - I Belive In Angels
TTITLE5=Harlan Burton - I Need A Tuch
TTITLE6=Clint Miller - Church In The Wildwood
TTITLE7=Becky Redels - Mighty Hand
TTITLE8=Red Johnson - I´ll See You In The Morning
TTITLE9=The Hamiltons - To The Glory Of My Father
TTITLE10=The Lawsons - I Call It At Home
TTITLE11=Dan Traxler - Heaven´s Jubilee
TTITLE12=Clint Miller - Uncloded Day
TTITLE13=Brenda Hampton - Picture Of An Angel
TTITLE14=Lenaye Pearson - My Heartache Could Be Healed By You
TTITLE15=Donna Adams - Be Good Or Be Gone
TTITLE16=Red Johnson - There Will Always Be Cowboys
TTITLE17=Loretta Solon - Through My Mothers Eyes
TTITLE18=Michael O`rourke - A Hat Like Hoss
TTITLE19=Mark Anony Abbot - The Game Of Life
EXTD=
EXTT0=
EXTT1=
EXTT2=
EXTT3=
EXTT4=
EXTT5=
EXTT6=
EXTT7=
EXTT8=
EXTT9=
EXTT10=
EXTT11=
EXTT12=
EXTT13=
EXTT14=
EXTT15=
EXTT16=
EXTT17=
EXTT18=
EXTT19=
PLAYORDER=
